<svg width="67" height="30" viewBox="0 0 67 30" fill="none" xmlns="http://www.w3.org/2000/svg">
<rect width="67" height="30" fill="#DD0218"/>
<path fill-rule="evenodd" clip-rule="evenodd" d="M2.55148 26.344H6.52045V18.2815L8.41044 26.344H10.4894L12.3794 18.2815V26.344H19.9394L20.5063 24.2815H23.5303L23.9083 26.344H31.8463V19.0315L34.5867 26.344H38.8392L35.8152 18.0002C36.8547 16.969 38.1777 15.0002 38.2722 12.469L40.5402 26.344H45.2652L48.8561 5.34399V26.344H56.2271V21.844H52.9196V17.719H56.2271V13.0315H52.9196V8.62524H56.2271V4.21899H44.6982L42.9972 15.5627L41.2017 4.21899H36.8547L37.3272 7.21899C36.8547 6.00024 35.9097 4.78149 34.4922 4.21899H27.4048V23.5315L24.4753 4.21899H19.3724L16.3484 23.5315V4.21899H11.2454L9.35543 13.219L7.65444 4.21899H2.55148V26.344ZM20.9788 19.0315L21.9238 12.469L23.0578 19.0315H20.9788ZM31.8463 15.0002V8.62524C33.3583 8.62524 34.1142 10.3127 34.1142 11.719C34.1142 13.1252 33.7362 14.9065 31.8463 15.0002Z" fill="white"/>
<path d="M57.5501 4.21899V26.344H64.543V22.0315H61.33V4.21899H57.5501Z" fill="white"/>
</svg>
